# xmcd
#
# Track frame offsets: 
#        150
#        12699
#        25880
#        39969
#        52111
#        61400
#        73520
#        85114
#        95905
#        108252
#        121769
#        134601
#        145554
#        156733
#        169028
#        186005
#        200719
#        217845
#        229420
#        244246
#        255421
#        268505
#        284460
#        298587
#        310488
#
# Disc length: 4311 seconds
#
# Revision: 0
# Processed by: cddbd v1.5.2PL0 Copyright (c) Steve Scherf et al.
# Submitted via: ExactAudioCopy v0.95b4
#
DISCID=7c10d519
DTITLE=Various Artist - 100 Soul Classics
DYEAR=1900
DGENRE=Soul
TTITLE0=Diana Ross and The Supremes - Reflections
TTITLE1=Stevie Wonder - My Cherie Amour
TTITLE2=Eddy Floyd - Knock On Wood
TTITLE3=Otis Redding - (Sittin' Onà The Dock Of The Bay
TTITLE4=Bill Withers - Ain't No Sunshine
TTITLE5=Four Tops - I Can't Help Myself
TTITLE6=Erna Franklin - Piece Of My Heart
TTITLE7=Sam Cooke - Lovable
TTITLE8=James Brown - It's A Man's, Man's, Man's World
TTITLE9=Smokey Robinson and The Miracles - The Tracks Of My Tears
TTITLE10=Martha Reeves and The Vandellas - Jimmy Mack
TTITLE11=Marvin Gaye and Tammi Terrell - Ain't No Mountain High Enough
TTITLE12=The Elgins - Heaven Must Have Sent You
TTITLE13=Gladys Knight and The Pips - I Heard It Through The Grapevine
TTITLE14=The Stylistics - Betcha By Golly Now
TTITLE15=Harold Melvin and The Bluenotes - If You Don't Know Me By Now
TTITLE16=The Temptations - Just My Imagination (Running Away With Me)
TTITLE17=Barrett Strong - Money (That's What I Want)
TTITLE18=Ramsey Lewis Trio - The "In" Crowd
TTITLE19=Jean Knight - Mr. Big Stuff
TTITLE20=Brenda Holloway - Every Little Bit Hurts
TTITLE21=Jerry Butler - I Only Have Eyes For You
TTITLE22=The O'Jays - Backstabbers
TTITLE23=Bobby Hebb - Sunny
TTITLE24=The Contours - Do You Love Me
EXTD=
EXTT0=
EXTT1=
EXTT2=
EXTT3=
EXTT4=
EXTT5=
EXTT6=
EXTT7=
EXTT8=
EXTT9=
EXTT10=
EXTT11=
EXTT12=
EXTT13=
EXTT14=
EXTT15=
EXTT16=
EXTT17=
EXTT18=
EXTT19=
EXTT20=
EXTT21=
EXTT22=
EXTT23=
EXTT24=
PLAYORDER=
